<svg width="191" height="23" viewBox="0 0 191 23" fill="none" xmlns="http://www.w3.org/2000/svg">
<g clip-path="url(#clip0_1_3)">
<path d="M170.698 15.779L177.044 15.434C177.253 16.448 178.675 17.341 180.571 17.341C183.04 17.341 183.84 16.551 183.84 15.779C183.84 14.747 183.044 14.34 181.275 14.012L177.603 13.326C173.733 12.602 171.051 10.626 171.051 7.186C171.051 2.716 174.578 0.311996 180.217 0.311996C185.506 0.311996 189.029 2.719 189.383 6.842H183.39C183.461 5.807 182.173 5.124 180.217 5.124C178.59 5.124 177.313 5.741 177.313 6.841C177.313 7.528 177.709 8.055 179.393 8.349L183.341 9.035C187.565 9.77 190.09 11.653 190.09 15.434C190.09 19.559 186.213 22.308 180.571 22.308C175.282 22.308 171.405 19.901 170.701 15.778H170.698V15.779ZM152.228 21.967H158.574V13.716L167.036 0.652996H159.986L156.109 7.528H155.755L151.17 0.652996H143.766L152.228 13.716V21.967ZM135.531 18.697H126.828L125.714 21.967H119.017L127.479 0.652996H134.883L143.345 21.967H136.649L135.534 18.697H135.531ZM134.006 14.23L131.53 6.955H130.826L128.35 14.23H134.01H134.006ZM115.494 11.312C115.494 17.842 110.909 21.967 103.859 21.967H95.047V0.652996H103.859C110.909 0.652996 115.494 4.779 115.494 11.308V11.312ZM109.148 11.312C109.148 7.532 107.032 5.468 103.509 5.468H101.747V16.813H103.509C107.036 16.813 109.148 14.751 109.148 11.315V11.312ZM67.196 21.967H72.835V10.28H73.189L81.65 21.967H86.585V0.652996H80.593V11.308H80.239L73.189 0.652996H67.196V21.967ZM34.406 21.967H40.753L44.28 9.59H44.633L47.453 21.967H54.149L59.79 0.652996H53.797L50.623 12.684H50.27L47.096 0.654996H41.456L38.283 12.685H37.93L35.11 0.654996H28.764L34.403 21.968H34.406V21.967ZM23.125 11.312C23.125 17.5 18.54 22.312 11.844 22.312C5.147 22.312 0.563004 17.5 0.563004 11.312C0.563004 4.782 5.147 0.311996 11.843 0.311996C18.54 0.311996 23.125 4.782 23.125 11.312ZM16.425 11.312C16.425 7.872 14.663 5.813 11.84 5.813C9.017 5.813 6.905 7.876 6.905 11.312C6.905 14.406 9.021 16.81 11.84 16.81C14.66 16.81 16.425 14.402 16.425 11.312Z" fill="black"/>
</g>
<defs>
<clipPath id="clip0_1_3">
<rect width="191" height="23" fill="white"/>
</clipPath>
</defs>
</svg>
